<?xml version="1.0" encoding="utf-8"?>
<!-- Generator: Adobe Illustrator 26.5.0, SVG Export Plug-In . SVG Version: 6.00 Build 0)  -->
<svg version="1.1" id="Layer_1" xmlns="http://www.w3.org/2000/svg" xmlns:xlink="http://www.w3.org/1999/xlink" x="0px" y="0px"
	 viewBox="0 0 160.5 45.6" style="enable-background:new 0 0 160.5 45.6;" xml:space="preserve">
<style type="text/css">
	.st0{fill:none;stroke:#000000;stroke-width:0.5;stroke-miterlimit:10;}
</style>
<g>
	<path class="st0" d="M160.5,22.6H46.1c-0.8,0-1.1-1.1-0.4-1.5l3.1-2c0.5-0.3,0.2-1.2-0.4-1.1l-2.2,0.2c-0.5,0.1-0.8-0.5-0.5-0.9
		L55.8,4.2c1.3-1.7,0-4.2-2.2-4l-0.9,0.1c-0.6,0-2,0.6-3.3,1.2c-1.6,0.7-2.7,2.2-3,4l-2.6,14.8c-0.2,1.4-0.1,2.1-2.2,2.2l-1.8,0.1
		c-1.4,0-2.9,1.4-3.1,2.8L35,39.8c-0.3,1.7-1.1,3.6-1.8,4.3c0,0-1.2,0.6-1.6,0.9c-0.6,0.3-2,0.5-2.7,0.3L27.6,45
		c-0.5-0.1-0.9-0.5-1.2-0.9c-0.3-0.6-0.5-1.4-0.7-2.7c-0.3-2.4,0.6-4.8,2.3-6.5l7.1-6.9c0.3-0.4,0-1-0.5-0.9l-1.5,0.2
		c-0.6,0.1-0.9-0.8-0.4-1.1l3.1-2c0.7-0.4,0.4-1.5-0.4-1.5H0"/>
	<circle class="st0" cx="37.4" cy="18.5" r="0.7"/>
	<circle class="st0" cx="44.3" cy="26.1" r="0.7"/>
</g>
<g id="Layer_2_00000152977517338070293860000009295797466163922822_">
</g>
<g>
	<path d="M62.2,28.5c-0.2,0.2-0.6,0.4-1.1,0.4s-1,0-1.6-0.1v-1.1c0.4,0,0.8,0,1.3,0c0.1,0,0.2,0,0.3-0.1s0.1-0.2,0.1-0.3v-3h-1v-1.1
		h2.3v4.1C62.5,27.9,62.4,28.3,62.2,28.5z"/>
	<path d="M67.6,27.7c0,0.4-0.1,0.7-0.3,0.9c-0.2,0.2-0.5,0.3-0.9,0.3h-1.8c-0.4,0-0.7-0.1-0.9-0.3c-0.2-0.2-0.3-0.5-0.3-0.9v-1.8
		c0-0.4,0.1-0.7,0.3-0.9c0.2-0.2,0.5-0.3,0.9-0.3h1.8c0.4,0,0.7,0.1,0.9,0.3c0.2,0.2,0.3,0.5,0.3,0.9V27.7z M66.2,26
		c0-0.2-0.1-0.3-0.3-0.3H65c-0.2,0-0.3,0.1-0.3,0.3v1.5c0,0.2,0.1,0.3,0.3,0.3h0.9c0.2,0,0.3-0.1,0.3-0.3V26z"/>
	<path d="M68.5,24.8c1-0.1,1.8-0.2,2.6-0.2c0.4,0,0.6,0.1,0.9,0.3c0.2,0.2,0.3,0.5,0.3,0.9v3.1h-1.2L71,28.5
		c-0.2,0.2-0.5,0.3-0.8,0.4S69.7,29,69.5,29h-0.3c-0.4,0-0.6-0.1-0.9-0.3c-0.2-0.2-0.3-0.5-0.3-0.9v-0.4c0-0.4,0.1-0.6,0.3-0.9
		c0.2-0.2,0.5-0.3,0.9-0.3h1.6v-0.3c0-0.1,0-0.1-0.1-0.2s-0.1-0.1-0.2-0.1c-0.3,0-0.7,0-1.1,0s-0.7,0.1-1,0.1L68.5,24.8L68.5,24.8z
		 M70,27.8c0.3,0,0.6-0.1,0.9-0.2v-0.5h-1.1c-0.1,0-0.1,0-0.2,0.1c-0.1,0.1-0.1,0.2-0.1,0.3l0,0c0,0.1,0,0.1,0.1,0.2
		s0.1,0.1,0.2,0.1C69.8,27.8,70,27.8,70,27.8z"/>
	<path d="M74.4,27.2v1.6H73v-5.5h1.4v2.8H75l0.9-1.4h1.5l-1.2,2l1.2,2.2h-1.5L75,27.3h-0.6V27.2z"/>
	<path d="M79.4,24.8v4H78v-2.9h-0.5v-1.1H79.4z M78,23.3h1.4v1.1H78V23.3z"/>
	<path d="M83,24.6c0.4,0,0.7,0.2,1,0.5c0.2-0.2,0.5-0.3,0.8-0.4s0.5-0.1,0.7-0.1h0.1c0.4,0,0.6,0.1,0.9,0.3c0.2,0.2,0.3,0.5,0.3,0.9
		v3.1h-1.4v-2.8c0-0.1,0-0.1-0.1-0.2s-0.1-0.1-0.2-0.1l0,0c-0.2,0-0.5,0.1-0.9,0.2v2.9h-1.4v-2.8c0-0.1,0-0.1-0.1-0.2
		s-0.1-0.1-0.2-0.1l0,0c-0.2,0-0.5,0.1-0.9,0.2v2.9h-1.4v-4.2h1.2l0.1,0.4c0.2-0.2,0.5-0.3,0.8-0.4C82.5,24.6,82.7,24.6,83,24.6
		L83,24.6z"/>
	<path d="M91.3,28.8h-1.4v-5.5h1.4v2.2H92l1.2-2.2h1.5L93.2,26l1.5,2.8h-1.5L92,26.6h-0.7V28.8z"/>
	<path d="M95.5,30.2c-0.5,0-1,0-1.5-0.1v-1h1c0.1,0,0.1,0,0.2-0.1s0.1-0.1,0.1-0.2v-4h1.4V29c0,0.4-0.1,0.6-0.3,0.9
		C96.1,30.1,95.8,30.2,95.5,30.2z M95.3,23.3h1.4v1.1h-1.4V23.3z"/>
	<path d="M101.6,25.4c0.1,0.1,0.1,0.3,0.1,0.5v1.8c0,0.4-0.1,0.7-0.3,0.9c-0.2,0.2-0.5,0.3-0.9,0.3h-1.8c-0.3,0-0.5-0.1-0.7-0.2
		l-0.2,0.2l-0.5-0.5l0.3-0.2c-0.1-0.1-0.1-0.3-0.1-0.5v-1.8c0-0.4,0.1-0.7,0.3-0.9c0.2-0.2,0.5-0.3,0.9-0.3h1.8
		c0.3,0,0.5,0.1,0.7,0.2l0.3-0.2l0.5,0.5L101.6,25.4z M98.7,27l1.4-1.3c-0.1,0-0.1,0-0.2,0H99c-0.2,0-0.3,0.1-0.3,0.3V27z
		 M100.3,26.5l-1.4,1.3c0.1,0,0.1,0,0.2,0h0.9c0.2,0,0.3-0.1,0.3-0.3V26.5z"/>
	<path d="M105.3,28.8l-0.1-0.4c-0.2,0.2-0.5,0.3-0.8,0.4s-0.5,0.1-0.7,0.1h-0.2c-0.4,0-0.6-0.1-0.9-0.3c-0.2-0.2-0.3-0.5-0.3-0.9
		v-1.8c0-0.4,0.1-0.7,0.3-0.9c0.2-0.2,0.5-0.3,0.9-0.3h1.6v-1.3h1.4v5.5h-1.2V28.8z M104.2,27.8c0.3,0,0.6-0.1,0.9-0.2v-1.9h-1.2
		c-0.2,0-0.3,0.1-0.3,0.3v1.5c0,0.1,0,0.1,0.1,0.2s0.1,0.1,0.2,0.1C103.9,27.8,104.2,27.8,104.2,27.8z"/>
	<path d="M111.1,28.8c-1,0.1-1.9,0.2-2.7,0.2c-0.4,0-0.6-0.1-0.9-0.3c-0.2-0.2-0.3-0.5-0.3-0.9v-1.9c0-0.4,0.1-0.7,0.3-0.9
		c0.2-0.2,0.5-0.3,0.9-0.3h1.6c0.4,0,0.7,0.1,0.9,0.3c0.2,0.2,0.3,0.5,0.3,0.9v1.4h-2.7v0.3c0,0.1,0,0.1,0.1,0.2s0.1,0.1,0.2,0.1
		c0.5,0,1.3,0,2.3-0.1C111.1,27.8,111.1,28.8,111.1,28.8z M108.9,25.6c-0.2,0-0.3,0.1-0.3,0.3v0.4h1.3v-0.4c0-0.2-0.1-0.3-0.3-0.3
		H108.9z"/>
</g>
</svg>
