<?xml version="1.0" encoding="utf-8"?>
<!-- Generator: Adobe Illustrator 26.5.0, SVG Export Plug-In . SVG Version: 6.00 Build 0)  -->
<svg version="1.1" id="Layer_1" xmlns="http://www.w3.org/2000/svg" xmlns:xlink="http://www.w3.org/1999/xlink" x="0px" y="0px"
	 viewBox="0 0 160.5 45.6" style="enable-background:new 0 0 160.5 45.6;" xml:space="preserve">
<style type="text/css">
	.st0{fill:#FFFFFF;stroke:#000000;stroke-width:0.5;stroke-miterlimit:10;}
</style>
<g>
	<path class="st0" d="M160.5,22.6H46.1c-0.8,0-1.1-1.1-0.4-1.5l3.1-2c0.5-0.3,0.2-1.2-0.4-1.1l-2.2,0.2c-0.5,0.1-0.8-0.5-0.5-0.9
		L55.8,4.2c1.3-1.7,0-4.2-2.2-4l-0.9,0.1c-0.6,0-2,0.6-3.3,1.2c-1.6,0.7-2.7,2.2-3,4l-2.6,14.8c-0.2,1.4-0.1,2.1-2.2,2.2l-1.8,0.1
		c-1.4,0-2.9,1.4-3.1,2.8L35,39.8c-0.3,1.7-1.1,3.6-1.8,4.3c0,0-1.2,0.6-1.6,0.9c-0.6,0.3-2,0.5-2.7,0.3l-1.3-0.3
		c-0.5-0.1-0.9-0.5-1.2-0.9c-0.3-0.6-0.5-1.4-0.7-2.7c-0.3-2.4,0.6-4.8,2.3-6.5l7.1-6.9c0.3-0.4,0-1-0.5-0.9l-1.5,0.2
		c-0.6,0.1-0.9-0.8-0.4-1.1l3.1-2c0.7-0.4,0.4-1.5-0.4-1.5H0"/>
	<circle class="st0" cx="37.4" cy="18.5" r="0.7"/>
	<circle class="st0" cx="44.3" cy="26.1" r="0.7"/>
</g>
<g id="Layer_2">
</g>
</svg>
