<?xml version="1.0" encoding="utf-8"?>
<!-- Generator: Adobe Illustrator 26.5.0, SVG Export Plug-In . SVG Version: 6.00 Build 0)  -->
<svg version="1.1" xmlns="http://www.w3.org/2000/svg" xmlns:xlink="http://www.w3.org/1999/xlink" x="0px" y="0px"
	 viewBox="0 0 200 100" style="enable-background:new 0 0 200 100;" xml:space="preserve">
<style type="text/css">
	.st0{fill:#FFFFFF;stroke:#000000;stroke-width:0.5;stroke-miterlimit:10;}
</style>
<g id="Layer_1">
	<g>
		<path class="st0" d="M175,55.6H60.6c-0.8,0-1.1-1.1-0.4-1.5l3.1-2c0.5-0.3,0.2-1.2-0.4-1.1l-2.2,0.2c-0.5,0.1-0.8-0.5-0.5-0.9
			l10.2-13.1c1.3-1.7,0-4.2-2.2-4l-0.9,0.1c-0.6,0-2,0.6-3.3,1.2c-1.6,0.7-2.7,2.2-3,4l-2.6,14.8c-0.2,1.4-0.1,2.1-2.2,2.2l-1.8,0.1
			c-1.4,0-2.9,1.4-3.1,2.8l-1.7,14.4c-0.3,1.7-1.1,3.6-1.8,4.3c0,0-1.2,0.6-1.6,0.9c-0.6,0.3-2,0.5-2.7,0.3l-1.3-0.3
			c-0.5-0.1-0.9-0.5-1.2-0.9c-0.3-0.6-0.5-1.4-0.7-2.7c-0.3-2.4,0.6-4.8,2.3-6.5l7.1-6.9c0.3-0.4,0-1-0.5-0.9l-1.5,0.2
			c-0.6,0.1-0.9-0.8-0.4-1.1l3.1-2c0.7-0.4,0.4-1.5-0.4-1.5H14.5"/>
		<circle class="st0" cx="51.9" cy="51.4" r="0.7"/>
		<circle class="st0" cx="58.8" cy="59" r="0.7"/>
	</g>
	<g id="Layer_2">
	</g>
</g>
<g id="Layer_3">
</g>
</svg>
