<?xml version="1.0" encoding="utf-8"?>
<!-- Generator: Adobe Illustrator 26.5.0, SVG Export Plug-In . SVG Version: 6.00 Build 0)  -->
<svg version="1.1" id="Layer_1" xmlns="http://www.w3.org/2000/svg" xmlns:xlink="http://www.w3.org/1999/xlink" x="0px" y="0px"
	 viewBox="0 0 160.5 45.6" style="enable-background:new 0 0 160.5 45.6;" xml:space="preserve">
<style type="text/css">
	.st0{fill:none;stroke:#000000;stroke-width:0.5;stroke-miterlimit:10;}
</style>
<g>
	<path class="st0" d="M160.5,22.6H46.1c-0.8,0-1.1-1.1-0.4-1.5l3.1-2c0.5-0.3,0.2-1.2-0.4-1.1l-2.2,0.2c-0.5,0.1-0.8-0.5-0.5-0.9
		L55.8,4.2c1.3-1.7,0-4.2-2.2-4l-0.9,0.1c-0.6,0-2,0.6-3.3,1.2c-1.6,0.7-2.7,2.2-3,4l-2.6,14.8c-0.2,1.4-0.1,2.1-2.2,2.2l-1.8,0.1
		c-1.4,0-2.9,1.4-3.1,2.8L35,39.8c-0.3,1.7-1.1,3.6-1.8,4.3c0,0-1.2,0.6-1.6,0.9c-0.6,0.3-2,0.5-2.7,0.3L27.6,45
		c-0.5-0.1-0.9-0.5-1.2-0.9c-0.3-0.6-0.5-1.4-0.7-2.7c-0.3-2.4,0.6-4.8,2.3-6.5l7.1-6.9c0.3-0.4,0-1-0.5-0.9l-1.5,0.2
		c-0.6,0.1-0.9-0.8-0.4-1.1l3.1-2c0.7-0.4,0.4-1.5-0.4-1.5H0"/>
	<circle class="st0" cx="37.4" cy="18.5" r="0.7"/>
	<circle class="st0" cx="44.3" cy="26.1" r="0.7"/>
</g>
<g id="Layer_2_00000152977517338070293860000009295797466163922822_">
</g>
<g>
	<path d="M62.7,28c-0.2,0.2-0.6,0.4-1.1,0.4c-0.5,0-1,0-1.6-0.1v-1.1c0.4,0,0.8,0,1.3,0c0.1,0,0.2,0,0.3-0.1s0.1-0.2,0.1-0.3v-3h-1
		v-1.1H63v4.1C63,27.4,62.9,27.8,62.7,28z"/>
	<path d="M68.1,27.2c0,0.4-0.1,0.7-0.3,0.9c-0.2,0.2-0.5,0.3-0.9,0.3h-1.8c-0.4,0-0.7-0.1-0.9-0.3c-0.2-0.2-0.3-0.5-0.3-0.9v-1.8
		c0-0.4,0.1-0.7,0.3-0.9c0.2-0.2,0.5-0.3,0.9-0.3h1.8c0.4,0,0.7,0.1,0.9,0.3c0.2,0.2,0.3,0.5,0.3,0.9V27.2z M66.7,25.5
		c0-0.2-0.1-0.3-0.3-0.3h-0.9c-0.2,0-0.3,0.1-0.3,0.3V27c0,0.2,0.1,0.3,0.3,0.3h0.9c0.2,0,0.3-0.1,0.3-0.3V25.5z"/>
	<path d="M69,24.3c1-0.1,1.8-0.2,2.6-0.2c0.4,0,0.6,0.1,0.9,0.3c0.2,0.2,0.3,0.5,0.3,0.9v3.1h-1.2l-0.1-0.4
		c-0.2,0.2-0.5,0.3-0.8,0.4c-0.3,0.1-0.5,0.1-0.7,0.1h-0.3c-0.4,0-0.6-0.1-0.9-0.3c-0.2-0.2-0.3-0.5-0.3-0.9v-0.4
		c0-0.4,0.1-0.6,0.3-0.9c0.2-0.2,0.5-0.3,0.9-0.3h1.6v-0.3c0-0.1,0-0.1-0.1-0.2c-0.1-0.1-0.1-0.1-0.2-0.1c-0.3,0-0.7,0-1.1,0
		c-0.4,0-0.7,0.1-1,0.1V24.3z M70.5,27.3c0.3,0,0.6-0.1,0.9-0.2v-0.5h-1.1c-0.1,0-0.1,0-0.2,0.1C70,26.8,70,26.9,70,27V27
		c0,0.1,0,0.1,0.1,0.2c0.1,0.1,0.1,0.1,0.2,0.1H70.5z"/>
	<path d="M74.9,26.7v1.6h-1.4v-5.5h1.4v2.8h0.6l0.9-1.4h1.5l-1.2,2l1.2,2.2h-1.5l-0.9-1.6H74.9z"/>
	<path d="M79.9,24.3v4h-1.4v-2.9H78v-1.1H79.9z M78.5,22.8h1.4v1.1h-1.4V22.8z"/>
	<path d="M83.5,24.1c0.4,0,0.7,0.2,1,0.5c0.2-0.2,0.5-0.3,0.8-0.4c0.3-0.1,0.5-0.1,0.7-0.1h0.1c0.4,0,0.6,0.1,0.9,0.3
		c0.2,0.2,0.3,0.5,0.3,0.9v3.1h-1.4v-2.8c0-0.1,0-0.1-0.1-0.2c-0.1-0.1-0.1-0.1-0.2-0.1h0c-0.2,0-0.5,0.1-0.9,0.2v2.9h-1.4v-2.8
		c0-0.1,0-0.1-0.1-0.2c-0.1-0.1-0.1-0.1-0.2-0.1h0c-0.2,0-0.5,0.1-0.9,0.2v2.9h-1.4v-4.2h1.2l0.1,0.4c0.2-0.2,0.5-0.3,0.8-0.4
		C83,24.1,83.2,24.1,83.5,24.1L83.5,24.1z"/>
	<path d="M91.8,28.3h-1.4v-5.5h1.4V25h0.7l1.2-2.2h1.5l-1.5,2.7l1.5,2.8h-1.5l-1.2-2.2h-0.7V28.3z"/>
	<path d="M96,29.7c-0.5,0-1,0-1.5-0.1v-1h1c0.1,0,0.1,0,0.2-0.1c0.1-0.1,0.1-0.1,0.1-0.2v-4h1.4v4.2c0,0.4-0.1,0.6-0.3,0.9
		C96.6,29.6,96.3,29.7,96,29.7z M95.8,22.8h1.4v1.1h-1.4V22.8z"/>
	<path d="M102.1,24.9c0.1,0.1,0.1,0.3,0.1,0.5v1.8c0,0.4-0.1,0.7-0.3,0.9c-0.2,0.2-0.5,0.3-0.9,0.3h-1.8c-0.3,0-0.5-0.1-0.7-0.2
		l-0.2,0.2l-0.5-0.5l0.3-0.2c-0.1-0.1-0.1-0.3-0.1-0.5v-1.8c0-0.4,0.1-0.7,0.3-0.9c0.2-0.2,0.5-0.3,0.9-0.3h1.8
		c0.3,0,0.5,0.1,0.7,0.2l0.3-0.2l0.5,0.5L102.1,24.9z M99.2,26.5l1.4-1.3c-0.1,0-0.1,0-0.2,0h-0.9c-0.2,0-0.3,0.1-0.3,0.3V26.5z
		 M100.8,26l-1.4,1.3c0.1,0,0.1,0,0.2,0h0.9c0.2,0,0.3-0.1,0.3-0.3V26z"/>
	<path d="M105.8,28.3l-0.1-0.4c-0.2,0.2-0.5,0.3-0.8,0.4c-0.3,0.1-0.5,0.1-0.7,0.1H104c-0.4,0-0.6-0.1-0.9-0.3
		c-0.2-0.2-0.3-0.5-0.3-0.9v-1.8c0-0.4,0.1-0.7,0.3-0.9c0.2-0.2,0.5-0.3,0.9-0.3h1.6v-1.3h1.4v5.5H105.8z M104.7,27.3
		c0.3,0,0.6-0.1,0.9-0.2v-1.9h-1.2c-0.2,0-0.3,0.1-0.3,0.3V27c0,0.1,0,0.1,0.1,0.2c0.1,0.1,0.1,0.1,0.2,0.1H104.7z"/>
	<path d="M111.6,28.3c-1,0.1-1.9,0.2-2.7,0.2c-0.4,0-0.6-0.1-0.9-0.3c-0.2-0.2-0.3-0.5-0.3-0.9v-1.9c0-0.4,0.1-0.7,0.3-0.9
		c0.2-0.2,0.5-0.3,0.9-0.3h1.6c0.4,0,0.7,0.1,0.9,0.3c0.2,0.2,0.3,0.5,0.3,0.9v1.4h-2.7v0.3c0,0.1,0,0.1,0.1,0.2
		c0.1,0.1,0.1,0.1,0.2,0.1c0.5,0,1.3,0,2.3-0.1V28.3z M109.4,25.1c-0.2,0-0.3,0.1-0.3,0.3v0.4h1.3v-0.4c0-0.2-0.1-0.3-0.3-0.3H109.4
		z"/>
</g>
</svg>
